<?xml version="1.0" encoding="utf-8"?>
<!-- Generator: Adobe Illustrator 19.2.1, SVG Export Plug-In . SVG Version: 6.00 Build 0)  -->
<svg version="1.1" id="Layer_1" xmlns="http://www.w3.org/2000/svg" xmlns:xlink="http://www.w3.org/1999/xlink" x="0px" y="0px"
	 viewBox="0 0 355.8 76.4" style="enable-background:new 0 0 355.8 76.4;" xml:space="preserve">
<style type="text/css">
	.st0{fill:#F2F2F2;}
	.st1{fill:#618E96;}
	.st2{fill:#05516B;}
</style>
<g transform="matrix(1.00598,0,0,1.00598,-21.0715,-816.07)">
	<g>
		<path class="st0" d="M105.5,844.7v-6h4c1.9,0,3.4,1.2,3.4,2.9c0,1.7-1.3,3-3,3H105.5z M105.6,837.1v-5.9h3.9
			c1.9,0,2.9,1.2,2.9,2.9c0,1.7-1,3-2.9,3H105.6z M103.8,845.9c0,0.2,0.2,0.5,0.5,0.5h5.5c3.1,0,5.2-1.9,5.2-4.6
			c0-2.2-1.6-3.4-2.9-3.9c1.1-0.6,2.4-2,2.4-3.8c0-2.5-2-4.4-4.9-4.4h-5.3c-0.3,0-0.5,0.2-0.5,0.5V845.9z"/>
		<path class="st0" d="M126.1,840.6l3.5-7.9h0.2c1.2,2.6,2.3,5.3,3.5,7.9H126.1z M122.3,846.3h1c0.2,0,0.4-0.1,0.4-0.3l1.8-4h8.5
			l1.8,4c0,0.1,0.2,0.3,0.4,0.3h1c0.4,0,0.6-0.3,0.4-0.6l-7.3-16.1c-0.1-0.1-0.2-0.3-0.4-0.3h-0.2c-0.2,0-0.3,0.1-0.4,0.3l-7.3,16.1
			C121.8,846,121.9,846.3,122.3,846.3z"/>
		<path class="st0" d="M145.5,845.9c0,0.2,0.2,0.5,0.5,0.5h8.3c0.3,0,0.5-0.2,0.5-0.5v-0.7c0-0.2-0.2-0.5-0.5-0.5h-6.9V830
			c0-0.2-0.2-0.5-0.5-0.5H146c-0.3,0-0.5,0.2-0.5,0.5V845.9z"/>
		<path class="st0" d="M164.5,844.7v-6h4c1.9,0,3.4,1.2,3.4,2.9c0,1.7-1.3,3-3,3H164.5z M164.5,837.1v-5.9h3.9
			c1.9,0,2.9,1.2,2.9,2.9c0,1.7-1,3-2.9,3H164.5z M162.7,845.9c0,0.2,0.2,0.5,0.5,0.5h5.5c3.1,0,5.2-1.9,5.2-4.6
			c0-2.2-1.6-3.4-2.9-3.9c1.1-0.6,2.4-2,2.4-3.8c0-2.5-2-4.4-4.9-4.4h-5.3c-0.3,0-0.5,0.2-0.5,0.5V845.9z"/>
		<path class="st0" d="M183.6,838c0-3.8,3.1-7,6.9-7c3.8,0,7,3.2,7,7c0,3.8-3.1,6.9-7,6.9C186.7,844.9,183.6,841.8,183.6,838
			 M181.9,838c0,4.8,3.8,8.6,8.6,8.6c4.8,0,8.7-3.8,8.7-8.6s-3.8-8.7-8.7-8.7C185.7,829.3,181.9,833.2,181.9,838"/>
		<path class="st0" d="M210.1,840.6l3.5-7.9h0.2c1.2,2.6,2.3,5.3,3.5,7.9H210.1z M206.4,846.3h1c0.2,0,0.4-0.1,0.4-0.3l1.8-4h8.5
			l1.8,4c0,0.1,0.2,0.3,0.4,0.3h1c0.4,0,0.6-0.3,0.4-0.6l-7.3-16.1c-0.1-0.1-0.2-0.3-0.4-0.3h-0.2c-0.2,0-0.3,0.1-0.4,0.3l-7.3,16.1
			C205.8,846,206,846.3,206.4,846.3L206.4,846.3z"/>
		<path class="st0" d="M242.2,838.5v-7.1h3.8c2,0,3.7,1.5,3.7,3.4c0,2.1-1.7,3.7-3.7,3.7H242.2z M240.4,845.9c0,0.2,0.2,0.5,0.5,0.5
			h0.9c0.2,0,0.5-0.2,0.5-0.5v-5.6h4c2.9,0,5.4-2.4,5.4-5.4c0-2.9-2.4-5.3-5.4-5.3h-5.3c-0.3,0-0.5,0.2-0.5,0.5V845.9z"/>
		<path class="st0" d="M262,840.6l3.5-7.9h0.2c1.2,2.6,2.3,5.3,3.5,7.9H262z M258.2,846.3h1c0.2,0,0.4-0.1,0.4-0.3l1.8-4h8.5l1.8,4
			c0,0.1,0.2,0.3,0.4,0.3h1c0.4,0,0.6-0.3,0.4-0.6l-7.3-16.1c-0.1-0.1-0.2-0.3-0.4-0.3h-0.2c-0.2,0-0.3,0.1-0.4,0.3l-7.3,16.1
			C257.6,846,257.8,846.3,258.2,846.3"/>
		<path class="st0" d="M280.2,838c0,4.8,3.9,8.6,8.7,8.6c2.1,0,4.2-0.7,5.8-2.3c0.2-0.2,0.2-0.5,0-0.6l-0.7-0.6
			c-0.1-0.1-0.3-0.1-0.6,0.1c-1.3,1-2.5,1.8-4.6,1.8c-3.8,0-6.7-3.2-6.7-6.9c0-3.7,2.9-6.9,6.7-6.9c1.6,0,3.3,0.7,4.6,1.8
			c0.2,0.2,0.4,0.3,0.6,0l0.6-0.6c0.2-0.2,0.2-0.5,0-0.7c-1.6-1.4-3.4-2.2-5.8-2.2C284,829.3,280.2,833.2,280.2,838z"/>
		<path class="st0" d="M303.8,845.9c0,0.2,0.2,0.5,0.5,0.5h1c0.2,0,0.5-0.2,0.5-0.5V830c0-0.2-0.2-0.5-0.5-0.5h-1
			c-0.2,0-0.5,0.2-0.5,0.5V845.9z"/>
		<path class="st0" d="M315.9,845.9c0,0.2,0.2,0.5,0.5,0.5h0.9c0.2,0,0.5-0.2,0.5-0.5v-6.5h6.9c0.2,0,0.5-0.2,0.5-0.5v-0.7
			c0-0.2-0.2-0.5-0.5-0.5h-6.9v-6.6h8.1c0.3,0,0.5-0.2,0.5-0.5V830c0-0.2-0.2-0.5-0.5-0.5h-9.5c-0.3,0-0.5,0.2-0.5,0.5V845.9z"/>
		<path class="st0" d="M335,845.9c0,0.2,0.2,0.5,0.5,0.5h1c0.2,0,0.5-0.2,0.5-0.5V830c0-0.2-0.2-0.5-0.5-0.5h-1
			c-0.2,0-0.5,0.2-0.5,0.5V845.9z"/>
		<path class="st0" d="M346,838c0,4.8,3.9,8.6,8.7,8.6c2.1,0,4.2-0.7,5.8-2.3c0.2-0.2,0.2-0.5,0-0.6l-0.7-0.6
			c-0.1-0.1-0.3-0.1-0.6,0.1c-1.3,1-2.5,1.8-4.6,1.8c-3.8,0-6.7-3.2-6.7-6.9c0-3.7,2.9-6.9,6.7-6.9c1.6,0,3.3,0.7,4.6,1.8
			c0.2,0.2,0.4,0.3,0.6,0l0.6-0.6c0.2-0.2,0.2-0.5,0-0.7c-1.6-1.4-3.4-2.2-5.8-2.2C349.8,829.3,346,833.2,346,838z"/>
	</g>
	<g transform="matrix(1,0,0,1,-113.209,0)">
		<path class="st0" d="M217,867.5c0,0.1,0.1,0.3,0.3,0.3h0.6c0.1,0,0.3-0.1,0.3-0.3v-9.8c0-0.1-0.1-0.3-0.3-0.3h-0.6
			c-0.1,0-0.3,0.1-0.3,0.3V867.5z"/>
		<path class="st0" d="M222.5,867.5c0,0.1,0.1,0.3,0.3,0.3h0.5c0.2,0,0.3-0.1,0.3-0.3v-8.1h0l6.8,8.5h0.3c0.1,0,0.3-0.1,0.3-0.3v-10
			c0-0.1-0.1-0.3-0.3-0.3h-0.5c-0.2,0-0.3,0.1-0.3,0.3v7.9h0l-6.7-8.3h-0.4c-0.1,0-0.3,0.1-0.3,0.3V867.5z"/>
		<path class="st0" d="M234.8,866.7c0.2,0.2,1.4,1.2,3.1,1.2c1.7,0,3.2-1.1,3.2-2.7c0-1.7-1.3-2.5-3.3-3.3c-1.3-0.5-2-1.1-2-2.1
			c0-0.6,0.5-1.6,2.1-1.6c0.9,0,1.8,0.6,2,0.7c0.2,0.1,0.4,0.1,0.5-0.1c0.1-0.1,0.1-0.2,0.2-0.3c0.2-0.3,0-0.5-0.1-0.5
			c0,0-1.1-0.8-2.5-0.8c-2.4,0-3.2,1.6-3.2,2.6c0,1.7,1,2.4,2.6,3.1c1.7,0.7,2.6,1.3,2.6,2.3c0,0.9-0.8,1.6-2,1.6
			c-1.3,0-2.4-1-2.5-1.1c-0.2-0.2-0.4-0.1-0.5,0.1c-0.1,0.1-0.1,0.2-0.2,0.3C234.6,866.5,234.7,866.6,234.8,866.7z"/>
		<path class="st0" d="M244.5,863.9c0,2.3,1.6,4,3.9,4c2.4,0,4-1.7,4-4v-6.3c0-0.1-0.1-0.3-0.3-0.3h-0.6c-0.2,0-0.3,0.1-0.3,0.3v6.2
			c0,1.7-1.1,3-2.8,3c-1.7,0-2.8-1.3-2.8-3v-6.2c0-0.1-0.1-0.3-0.3-0.3h-0.6c-0.1,0-0.3,0.1-0.3,0.3V863.9z"/>
		<path class="st0" d="M257.9,862.7v-4.3h2.9c1.1,0,2.1,1,2.1,2.1c0,1.2-1,2.2-2.1,2.2H257.9z M256.7,867.5c0,0.1,0.1,0.3,0.3,0.3
			h0.6c0.1,0,0.3-0.1,0.3-0.3v-3.8h2.8l2,3.9c0,0.1,0.1,0.1,0.2,0.1h0.8c0.3,0,0.4-0.2,0.3-0.4l-2-3.8c1.3-0.5,2.2-1.7,2.2-3
			c0-1.8-1.5-3.2-3.2-3.2H257c-0.2,0-0.3,0.1-0.3,0.3V867.5z"/>
		<path class="st0" d="M269,864.2l2.2-4.9h0.1c0.7,1.6,1.4,3.3,2.2,4.9H269z M266.7,867.7h0.6c0.1,0,0.2-0.1,0.3-0.2l1.1-2.5h5.3
			l1.1,2.5c0,0.1,0.1,0.2,0.3,0.2h0.6c0.2,0,0.3-0.2,0.3-0.4l-4.5-10c0-0.1-0.1-0.2-0.3-0.2h-0.1c-0.1,0-0.2,0.1-0.3,0.2l-4.5,10
			C266.3,867.6,266.5,867.7,266.7,867.7z"/>
		<path class="st0" d="M279.1,867.5c0,0.1,0.1,0.3,0.3,0.3h0.5c0.2,0,0.3-0.1,0.3-0.3v-8.1h0l6.8,8.5h0.3c0.1,0,0.3-0.1,0.3-0.3v-10
			c0-0.1-0.1-0.3-0.3-0.3h-0.5c-0.2,0-0.3,0.1-0.3,0.3v7.9h0l-6.7-8.3h-0.4c-0.1,0-0.3,0.1-0.3,0.3V867.5z"/>
		<path class="st0" d="M291.2,862.6c0,3,2.4,5.3,5.4,5.3c1.3,0,2.6-0.5,3.6-1.4c0.1-0.1,0.1-0.3,0-0.4l-0.4-0.4
			c-0.1-0.1-0.2-0.1-0.4,0c-0.8,0.6-1.5,1.1-2.8,1.1c-2.4,0-4.2-2-4.2-4.3c0-2.3,1.8-4.3,4.2-4.3c1,0,2.1,0.4,2.8,1.1
			c0.1,0.1,0.3,0.2,0.4,0l0.4-0.4c0.1-0.1,0.1-0.3,0-0.4c-1-0.9-2.1-1.4-3.6-1.4C293.6,857.2,291.2,859.6,291.2,862.6z"/>
		<path class="st0" d="M303.8,867.5c0,0.1,0.1,0.3,0.3,0.3h5.9c0.2,0,0.3-0.1,0.3-0.3V867c0-0.1-0.1-0.3-0.3-0.3h-5V863h4.3
			c0.1,0,0.3-0.1,0.3-0.3v-0.4c0-0.1-0.1-0.3-0.3-0.3H305v-3.6h5c0.2,0,0.3-0.1,0.3-0.3v-0.4c0-0.1-0.1-0.3-0.3-0.3h-5.9
			c-0.2,0-0.3,0.1-0.3,0.3V867.5z"/>
		<path class="st0" d="M318.1,866.7c0.2,0.2,1.4,1.2,3.1,1.2c1.7,0,3.2-1.1,3.2-2.7c0-1.7-1.3-2.5-3.3-3.3c-1.3-0.5-2-1.1-2-2.1
			c0-0.6,0.5-1.6,2.1-1.6c0.9,0,1.8,0.6,2,0.7c0.2,0.1,0.4,0.1,0.5-0.1c0.1-0.1,0.1-0.2,0.2-0.3c0.2-0.3,0-0.5-0.1-0.5
			c0,0-1.1-0.8-2.5-0.8c-2.4,0-3.2,1.6-3.2,2.6c0,1.7,1,2.4,2.6,3.1c1.7,0.7,2.6,1.3,2.6,2.3c0,0.9-0.8,1.6-2,1.6
			c-1.3,0-2.4-1-2.5-1.1c-0.2-0.2-0.4-0.1-0.5,0.1c-0.1,0.1-0.1,0.2-0.2,0.3C317.8,866.5,318,866.6,318.1,866.7z"/>
		<path class="st0" d="M327.9,867.5c0,0.1,0.1,0.3,0.3,0.3h5.9c0.2,0,0.3-0.1,0.3-0.3V867c0-0.1-0.1-0.3-0.3-0.3h-5V863h4.3
			c0.1,0,0.3-0.1,0.3-0.3v-0.4c0-0.1-0.1-0.3-0.3-0.3h-4.3v-3.6h5c0.2,0,0.3-0.1,0.3-0.3v-0.4c0-0.1-0.1-0.3-0.3-0.3h-5.9
			c-0.2,0-0.3,0.1-0.3,0.3V867.5z"/>
		<path class="st0" d="M339.3,862.7v-4.3h2.9c1.1,0,2.1,1,2.1,2.1c0,1.2-1,2.2-2.1,2.2H339.3z M338.1,867.5c0,0.1,0.1,0.3,0.3,0.3
			h0.6c0.1,0,0.3-0.1,0.3-0.3v-3.8h2.8l2,3.9c0,0.1,0.1,0.1,0.2,0.1h0.8c0.3,0,0.4-0.2,0.3-0.4l-2-3.8c1.3-0.5,2.2-1.7,2.2-3
			c0-1.8-1.5-3.2-3.2-3.2h-3.9c-0.2,0-0.3,0.1-0.3,0.3V867.5z"/>
		<path class="st0" d="M352.3,867.7c0,0.1,0.1,0.2,0.3,0.2h0.1c0.1,0,0.2-0.1,0.3-0.2l4.5-10c0.1-0.2,0-0.4-0.3-0.4h-0.6
			c-0.1,0-0.2,0.1-0.3,0.2l-3.7,8.3h-0.1l-3.7-8.3c0-0.1-0.1-0.2-0.3-0.2h-0.6c-0.2,0-0.3,0.2-0.3,0.4L352.3,867.7z"/>
		<path class="st0" d="M360.5,867.5c0,0.1,0.1,0.3,0.3,0.3h0.6c0.1,0,0.3-0.1,0.3-0.3v-9.8c0-0.1-0.1-0.3-0.3-0.3h-0.6
			c-0.1,0-0.3,0.1-0.3,0.3V867.5z"/>
		<path class="st0" d="M365.3,862.6c0,3,2.4,5.3,5.4,5.3c1.3,0,2.6-0.5,3.6-1.4c0.1-0.1,0.1-0.3,0-0.4l-0.4-0.4
			c-0.1-0.1-0.2-0.1-0.4,0c-0.8,0.6-1.5,1.1-2.8,1.1c-2.4,0-4.2-2-4.2-4.3c0-2.3,1.8-4.3,4.2-4.3c1,0,2.1,0.4,2.8,1.1
			c0.1,0.1,0.3,0.2,0.4,0l0.4-0.4c0.1-0.1,0.1-0.3,0-0.4c-1-0.9-2.1-1.4-3.6-1.4C367.7,857.2,365.3,859.6,365.3,862.6z"/>
		<path class="st0" d="M377.9,867.5c0,0.1,0.1,0.3,0.3,0.3h5.9c0.2,0,0.3-0.1,0.3-0.3V867c0-0.1-0.1-0.3-0.3-0.3h-5V863h4.3
			c0.1,0,0.3-0.1,0.3-0.3v-0.4c0-0.1-0.1-0.3-0.3-0.3H379v-3.6h5c0.2,0,0.3-0.1,0.3-0.3v-0.4c0-0.1-0.1-0.3-0.3-0.3h-5.9
			c-0.2,0-0.3,0.1-0.3,0.3V867.5z"/>
		<path class="st0" d="M387.5,866.7c0.2,0.2,1.4,1.2,3.1,1.2c1.7,0,3.2-1.1,3.2-2.7c0-1.7-1.3-2.5-3.3-3.3c-1.3-0.5-2-1.1-2-2.1
			c0-0.6,0.5-1.6,2.1-1.6c0.9,0,1.8,0.6,2,0.7c0.2,0.1,0.4,0.1,0.5-0.1c0.1-0.1,0.1-0.2,0.2-0.3c0.2-0.3,0-0.5-0.1-0.5
			c0,0-1.1-0.8-2.5-0.8c-2.4,0-3.2,1.6-3.2,2.6c0,1.7,1,2.4,2.6,3.1c1.7,0.7,2.6,1.3,2.6,2.3c0,0.9-0.8,1.6-2,1.6
			c-1.3,0-2.4-1-2.5-1.1c-0.2-0.2-0.4-0.1-0.5,0.1c-0.1,0.1-0.1,0.2-0.2,0.3C387.2,866.5,387.4,866.6,387.5,866.7z"/>
	</g>
</g>
<g>
	<path class="st1" d="M12.3,44.4c3.4-0.3,6.7-0.7,10.1-1.1c1.9-0.2,3.9-0.5,5.8-0.3c1.9,0.2,3.7,0.5,5.5,0.9
		c1.1,0.2,1.5,0.1,1.9-0.8c0.4-1.2,0.8-2.4,1-3.7c0.3-1.4,0.6-2.8,0.8-4.2c0.4-2.4,1.5-4.6,2.7-6.8c1.2-2.1,2.4-4.2,3.5-6.3
		c0.5-1,0.8-2.1,1-3.2c0.6-2.1,1-4.2,1.6-6.3c0.3-1.1,0.6-2.2,0.8-3.3c-3.4-1.3-7.1-2-11-2C19.2,7.2,5.4,21,5.4,38.1
		c0,2.4,0.3,4.7,0.8,6.9C8.2,44.8,10.3,44.6,12.3,44.4z"/>
	<path class="st2" d="M55.7,14.1c0.1,1.1,0.1,2.3-0.3,3.4c-0.7,2.1-1,4.2-1.3,6.3c-0.1,1-0.4,2-1,2.9c-1.3,1.7-2.4,3.4-3.4,5.3
		c-1.4,2.8-1.9,5.7-2.1,8.6c0,0.2,0,0.5,0.1,0.7c0.7,1.6,2,2.8,4.1,3.2c1.1,0.2,1.8,0.6,2.2,1.6c0.1,0.4,0.6,0.7,1,1
		c0.3,0.2,0.7,0.3,1.1,0.5c0.8,0.4,1.3,0.9,1.5,1.8c-0.9-0.2-1.6-0.4-2.4-0.6c-0.9-0.2-1.8-0.1-2.6,0.3c-1.1,0.7-2.4,1-3.8,1.3
		c-2,0.5-4,0.9-5.9,1.6c-2.5,0.9-5,1.2-7.6,1c-1.7-0.1-3.4-0.2-5.1-0.1c-1.7,0.1-3.3,0.4-5,0.4c-0.8,0-1.6,0.4-2.4-0.1
		c0,0-0.1,0-0.2,0c-1.2,0.3-2.4,0.5-3.6,0.8c-0.3,0-0.6,0-0.9,0c-0.3-0.1-0.5-0.2-0.8-0.3c0,0,0-0.1,0-0.1c0.1,0,0.3-0.1,0.4-0.1
		c1.3-0.3,2.7-0.5,4-0.9c1.3-0.4,2.5-1.1,3.7-1.7c1.3-0.7,2.6-1.5,3.9-2.2c0.1-0.1,0.2-0.1,0.3-0.2c0,0,0-0.1-0.1-0.1
		c-0.3,0.1-0.6,0.2-1,0.3c-0.2,0.1-0.4,0.1-0.6-0.1c-0.1-0.1-0.3-0.2-0.4-0.2c-0.5-0.1-1.1,0-1.6-0.1c-2.4-0.5-4.9-1-7.3-1.5
		c-0.7-0.1-1.4-0.2-2.1-0.2c-1.1,0-2.1,0-3.2,0c-0.8,0-1.6-0.3-2.5-0.3c-1,0-1.9,0-2.9,0c-0.5,0-1.1,0.1-1.6,0.1
		C10,59.2,22,68.9,36.2,68.9c17,0,30.8-13.8,30.8-30.8C67.1,28.4,62.6,19.8,55.7,14.1z"/>
</g>
</svg>
